# xmcd
#
# Track frame offsets:
#	187
#	9890
#	19545
#	35595
#	46775
#	61925
#	75477
#	90387
#	102560
#	116317
#	128372
#	141350
#	154432
#	165830
#	178992
#
# Disc length: 2566 seconds
#
# Revision: 1
# Processed by: cddbd v1.5.1PL0 Copyright (c) Steve Scherf et al.
# Submitted via: CDex 1.50Beta5
#
DISCID=ab0a040f
DTITLE=Various Artist - 決定盤G.S.ベスト・ヒット15
DYEAR=1900
DGENRE=G.S.
TTITLE0=ザ・スパイタ゜ース/フリ・フリ'66
TTITLE1=ザ・スパイタ゜ース/サマー・ガール
TTITLE2=ザ・サページ/いつまでもいつまでも
TTITLE3=ザ・スバイダース/夕日が泣いている
TTITLE4=ザ・サベージ/この手のひらに愛を
TTITLE5=ザ・ジャガーズ/君に会いたい
TTITLE6=ザ・カーナビーツ/好きさ好きさ好きさ
TTITLE7=ザ・スバイダース/風が泣いている
TTITLE8=ザ・ジャガーズ/タンシング・ロンリー・ナイト
TTITLE9=ザ・カーナビーツ/恋をしようよジェニー
TTITLE10=ザ・テンプターズ/忘れ得ぬ君
TTITLE11=ザ・テンプターズ/今日を生きよう
TTITLE12=ザ・スバイダース/バン・バン・バン
TTITLE13=パープル・シャドウズ/小さなスナック
TTITLE14=ザ・テンプターズ/エメラルドの伝説
EXTD=
EXTT0=
EXTT1=
EXTT2=
EXTT3=
EXTT4=
EXTT5=
EXTT6=
EXTT7=
EXTT8=
EXTT9=
EXTT10=
EXTT11=
EXTT12=
EXTT13=
EXTT14=
PLAYORDER=
